<svg width="512" height="512" viewBox="0 0 512 512" fill="none" xmlns="http://www.w3.org/2000/svg">
  <rect width="512" height="512" rx="128" fill="url(#gradient)" />
  <path d="M192 128C192 119.163 199.163 112 208 112H304C312.837 112 320 119.163 320 128V192C320 200.837 312.837 208 304 208H208C199.163 208 192 200.837 192 192V128Z" fill="white"/>
  <path d="M160 224C160 215.163 167.163 208 176 208H336C344.837 208 352 215.163 352 224V288C352 296.837 344.837 304 336 304H176C167.163 304 160 296.837 160 288V224Z" fill="white" fill-opacity="0.9"/>
  <path d="M192 320C192 311.163 199.163 304 208 304H304C312.837 304 320 311.163 320 320V384C320 392.837 312.837 400 304 400H208C199.163 400 192 392.837 192 384V320Z" fill="white"/>
  <path fill="white" d="M256 112L288 208H224L256 112Z" transform="rotate(-12 256 160)" />
  <defs>
    <linearGradient id="gradient" x1="0" y1="0" x2="512" y2="512" gradientUnits="userSpaceOnUse">
      <stop offset="0%" stop-color="#1761ff"/>
      <stop offset="100%" stop-color="#0047e1"/>
    </linearGradient>
  </defs>
</svg>